<?xml version="1.0" encoding="UTF-8" standalone="no"?>
<!-- Generator: Adobe Illustrator 14.0.0, SVG Export Plug-In  -->

<svg
   xmlns:dc="http://purl.org/dc/elements/1.1/"
   xmlns:cc="http://creativecommons.org/ns#"
   xmlns:rdf="http://www.w3.org/1999/02/22-rdf-syntax-ns#"
   xmlns:svg="http://www.w3.org/2000/svg"
   xmlns="http://www.w3.org/2000/svg"
   xmlns:sodipodi="http://sodipodi.sourceforge.net/DTD/sodipodi-0.dtd"
   xmlns:inkscape="http://www.inkscape.org/namespaces/inkscape"
   version="1.1"
   x="0px"
   y="0px"
   width="210"
   height="210"
   viewBox="-0.866 -0.866 210 210"
   enable-background="new -0.866 -0.866 285 285"
   xml:space="preserve"
   id="svg2"
   inkscape:version="0.48.3.1 r9886"
   sodipodi:docname="logo-ubuntu_cof-orange-hex.svg"><metadata
   id="metadata12"><rdf:RDF><cc:Work
       rdf:about=""><dc:format>image/svg+xml</dc:format><dc:type
         rdf:resource="http://purl.org/dc/dcmitype/StillImage" /><dc:title></dc:title></cc:Work></rdf:RDF></metadata><sodipodi:namedview
   pagecolor="#ffffff"
   bordercolor="#666666"
   borderopacity="1"
   objecttolerance="10"
   gridtolerance="10"
   guidetolerance="10"
   inkscape:pageopacity="0"
   inkscape:pageshadow="2"
   inkscape:window-width="1280"
   inkscape:window-height="969"
   id="namedview10"
   showgrid="false"
   inkscape:zoom="0.82807018"
   inkscape:cx="-1.2076271"
   inkscape:cy="142.5"
   inkscape:window-x="0"
   inkscape:window-y="27"
   inkscape:window-maximized="1"
   inkscape:current-layer="svg2" />
<defs
   id="defs4">
</defs>

<g
   id="g2989"
   transform="translate(4.133645,-4.33)"><path
     style="fill:#dd4814"
     inkscape:connector-curvature="0"
     id="path6"
     d="m 200.00071,108.46541 c 0,55.22606 -44.77253,99.99859 -100.001416,99.99859 C 44.770412,208.464 0,163.69218 0,108.46541 0,53.23512 44.769706,8.464 99.998589,8.464 c 55.228881,0 100.002121,44.77112 100.002121,100.00141 z" /><path
     style="fill:#ffffff"
     inkscape:connector-curvature="0"
     id="path8"
     d="m 32.001242,95.11486 c -7.375187,0 -13.351255,5.97607 -13.351255,13.35126 0,7.37236 5.976068,13.34913 13.351255,13.34913 7.372365,0 13.349138,-5.97677 13.349138,-13.34913 0,-7.3759 -5.976068,-13.35126 -13.349138,-13.35126 z m 95.325688,60.67931 c -6.386,3.68654 -8.57181,11.84842 -4.88669,18.23159 3.68724,6.386 11.84842,8.57323 18.23441,4.88669 6.38388,-3.68583 8.57111,-11.84771 4.88457,-18.233 -3.68583,-6.38318 -11.84841,-8.57111 -18.23229,-4.88528 z M 61.001044,108.464 c 0,-13.19462 6.556741,-24.84901 16.583411,-31.90599 L 67.82378,60.20814 c -11.684023,7.80628 -20.375074,19.74007 -23.985409,33.71715 4.217114,3.43748 6.911636,8.672 6.911636,14.54012 0,5.86671 -2.694522,11.10123 -6.912342,14.538 3.60963,13.9785 12.301386,25.91229 23.98541,33.71786 l 9.76138,-16.35128 C 67.557785,133.31442 61.001044,121.66074 61.001044,108.464 z M 100.00071,69.46434 c 20.37436,0 37.08689,15.62174 38.83879,35.54102 l 19.02746,-0.27799 c -0.93627,-14.70663 -7.36037,-27.91324 -17.23323,-37.61959 -5.07578,1.9177 -10.93966,1.62701 -16.00768,-1.29964 -5.07436,-2.92947 -8.25854,-7.87119 -9.13061,-13.23413 -4.93325,-1.36525 -10.12545,-2.10961 -15.49403,-2.10961 -9.232917,0 -17.955718,2.16747 -25.704145,6.0057 l 9.275252,16.62292 c 4.993227,-2.3234 10.557249,-3.62868 16.428193,-3.62868 z m 0,78.00003 c -5.87165,0 -11.434966,-1.30528 -16.428898,-3.62868 l -9.276663,16.62433 c 7.749132,3.83682 16.472638,6.005 25.705561,6.005 5.36858,0 10.56077,-0.74437 15.49473,-2.10962 0.87207,-5.36294 4.05695,-10.30466 9.13203,-13.23625 5.06801,-2.92524 10.9319,-3.21593 16.00767,-1.29752 9.87216,-9.70705 16.29625,-22.91367 17.23111,-37.62029 l -19.02746,-0.27799 c -1.75048,19.9221 -18.46372,35.54102 -38.83808,35.54102 z m 27.3241,-86.33125 c 6.38529,3.68795 14.54788,1.50002 18.233,-4.88316 3.68724,-6.38599 1.50143,-14.54788 -4.88457,-18.23512 -6.38458,-3.68583 -14.54647,-1.4986 -18.23371,4.8874 -3.68583,6.38317 -1.4986,14.54576 4.88528,18.23088 z" /></g>
</svg>